<?xml version="1.0" standalone="yes"?>

<svg version="1.1" viewBox="0.0 0.0 960.0 720.0" fill="none" stroke="none" stroke-linecap="square" stroke-miterlimit="10" xmlns="http://www.w3.org/2000/svg" xmlns:xlink="http://www.w3.org/1999/xlink"><clipPath id="p.0"><path d="m0 0l960.0 0l0 720.0l-960.0 0l0 -720.0z" clip-rule="nonzero"></path></clipPath><g clip-path="url(#p.0)"><path fill="#000000" fill-opacity="0.0" d="m0 0l960.0 0l0 720.0l-960.0 0z" fill-rule="nonzero"></path><path fill="#000000" fill-opacity="0.0" d="m65.45407 70.8189c27.541115 41.848206 116.06648 191.89368 165.24672 251.08923c49.18022 59.195526 55.796158 82.444885 129.83464 104.083984c74.03848 21.6391 226.22922 21.816284 314.39633 25.75064c88.167114 3.9343872 172.2218 -1.9658508 214.60632 -2.1443481c42.38446 -0.1784668 33.083984 0.8945923 39.700745 1.0734863" fill-rule="nonzero"></path><path stroke="#cc4125" stroke-width="12.0" stroke-linejoin="round" stroke-linecap="butt" d="m65.45407 70.8189c27.541115 41.848206 116.06648 191.89368 165.24672 251.08923c49.18022 59.195526 55.796158 82.444885 129.83464 104.083984c74.03848 21.6391 226.22922 21.816284 314.39633 25.75064c88.167114 3.9343872 172.2218 -1.9658508 214.60632 -2.1443481c42.38446 -0.1784668 33.083984 0.8945923 39.700745 1.0734863" fill-rule="nonzero"></path><path fill="#000000" fill-opacity="0.0" d="m56.87139 15.0236225l2.1417313 544.0315" fill-rule="nonzero"></path><path stroke="#000000" stroke-width="4.0" stroke-linejoin="round" stroke-linecap="butt" d="m56.87139 15.0236225l2.1417313 544.0315" fill-rule="nonzero"></path><path fill="#000000" fill-opacity="0.0" d="m59.015747 559.04724l884.18896 0" fill-rule="nonzero"></path><path stroke="#000000" stroke-width="4.0" stroke-linejoin="round" stroke-linecap="butt" d="m59.015747 559.04724l884.18896 0" fill-rule="nonzero"></path></g></svg>

