<?xml version="1.0" standalone="yes"?>

<svg version="1.1" viewBox="0.0 0.0 960.0 720.0" fill="none" stroke="none" stroke-linecap="square" stroke-miterlimit="10" xmlns="http://www.w3.org/2000/svg" xmlns:xlink="http://www.w3.org/1999/xlink"><clipPath id="p.0"><path d="m0 0l960.0 0l0 720.0l-960.0 0l0 -720.0z" clip-rule="nonzero"></path></clipPath><g clip-path="url(#p.0)"><path fill="#000000" fill-opacity="0.0" d="m0 0l960.0 0l0 720.0l-960.0 0z" fill-rule="nonzero"></path><path fill="#000000" fill-opacity="0.0" d="m56.87139 15.0236225l2.1417313 544.0315" fill-rule="nonzero"></path><path stroke="#000000" stroke-width="4.0" stroke-linejoin="round" stroke-linecap="butt" d="m56.87139 15.0236225l2.1417313 544.0315" fill-rule="nonzero"></path><path fill="#000000" fill-opacity="0.0" d="m59.015747 559.04724l884.189 0" fill-rule="nonzero"></path><path stroke="#000000" stroke-width="4.0" stroke-linejoin="round" stroke-linecap="butt" d="m59.015747 559.04724l884.189 0" fill-rule="nonzero"></path><path fill="#000000" fill-opacity="0.0" d="m84.97638 110.23917c8.420822 7.4641266 34.831146 -2.8709564 50.524933 44.784775c15.693787 47.65573 27.369644 197.89589 43.637802 241.14961c16.268143 43.253723 36.36351 34.066498 53.971115 18.372711c17.60762 -15.693787 38.660126 -78.468506 51.67456 -112.53543c13.014435 -34.066956 9.952728 -72.918655 26.412048 -91.86615c16.45932 -18.94751 56.458893 -28.900269 72.34384 -21.818909c15.884949 7.081375 17.415588 32.728348 22.965881 64.3071c5.550293 31.578735 5.3595886 95.309265 10.335968 125.165344c4.9763794 29.85608 6.5078735 48.80359 19.522308 53.97113c13.014435 5.1675415 44.21039 12.632111 58.5643 -22.965881c14.353882 -35.597992 18.755493 -153.30139 27.559021 -190.62204c8.803589 -37.32065 12.630798 -31.388016 25.262512 -33.301834c12.631653 -1.9138336 39.04419 -19.138245 50.527527 21.818893c11.483398 40.957123 9.18634 185.8377 18.372742 223.92389c9.18634 38.08618 27.750183 49.37796 36.74536 4.59317c8.995239 -44.78479 7.2734375 -227.1776 17.225769 -273.30182c9.9522705 -46.124237 33.11023 -57.03237 42.48816 -3.443573c9.37793 53.588806 3.8272095 268.70868 13.779541 324.97638c9.952332 56.26773 37.32196 70.04636 45.934387 12.629944c8.612427 -57.416443 -4.4033203 -295.69336 5.7401733 -357.1286c10.143433 -61.435257 44.21167 -72.9182 55.120728 -11.482941c10.908997 61.435257 2.4864502 317.31934 10.333313 380.09448c7.846924 62.775146 28.709534 65.45581 36.748047 -3.443573c8.038452 -68.89938 4.210388 -345.64655 11.48291 -409.95276c7.272522 -64.306206 25.262512 -6.6977234 32.15222 24.115486c6.8897705 30.813217 7.6553345 133.96982 9.186401 160.7638" fill-rule="nonzero"></path><path stroke="#93c47d" stroke-width="12.0" stroke-linejoin="round" stroke-linecap="butt" d="m84.97638 110.23917c8.420822 7.4641266 34.831146 -2.8709564 50.524933 44.784775c15.693787 47.65573 27.369644 197.89589 43.637802 241.14961c16.268143 43.253723 36.36351 34.066498 53.971115 18.372711c17.60762 -15.693787 38.660126 -78.468506 51.67456 -112.53543c13.014435 -34.066956 9.952728 -72.918655 26.412048 -91.86615c16.45932 -18.94751 56.458893 -28.900269 72.34384 -21.818909c15.884949 7.081375 17.415588 32.728348 22.965881 64.3071c5.550293 31.578735 5.3595886 95.309265 10.335968 125.165344c4.9763794 29.85608 6.5078735 48.80359 19.522308 53.97113c13.014435 5.1675415 44.21039 12.632111 58.5643 -22.965881c14.353882 -35.597992 18.755493 -153.30139 27.559021 -190.62204c8.803589 -37.32065 12.630798 -31.388016 25.262512 -33.301834c12.631653 -1.9138336 39.04419 -19.138245 50.527527 21.818893c11.483398 40.957123 9.18634 185.8377 18.372742 223.92389c9.18634 38.08618 27.750183 49.37796 36.74536 4.59317c8.995239 -44.78479 7.2734375 -227.1776 17.225769 -273.30182c9.9522705 -46.124237 33.11023 -57.03237 42.48816 -3.443573c9.37793 53.588806 3.8272095 268.70868 13.779541 324.97638c9.952332 56.26773 37.32196 70.04636 45.934387 12.629944c8.612427 -57.416443 -4.4033203 -295.69336 5.7401733 -357.1286c10.143433 -61.435257 44.21167 -72.9182 55.120728 -11.482941c10.908997 61.435257 2.4864502 317.31934 10.333313 380.09448c7.846924 62.775146 28.709534 65.45581 36.748047 -3.443573c8.038452 -68.89938 4.210388 -345.64655 11.48291 -409.95276c7.272522 -64.306206 25.262512 -6.6977234 32.15222 24.115486c6.8897705 30.813217 7.6553345 133.96982 9.186401 160.7638" fill-rule="nonzero"></path></g></svg>

